<?xml version="1.0" encoding="utf-8"?>
<!-- Generator: Adobe Illustrator 16.0.0, SVG Export Plug-In . SVG Version: 6.00 Build 0)  -->
<!DOCTYPE svg PUBLIC "-//W3C//DTD SVG 1.1//EN" "http://www.w3.org/Graphics/SVG/1.1/DTD/svg11.dtd">
<svg version="1.1" id="Layer_1" xmlns="http://www.w3.org/2000/svg" xmlns:xlink="http://www.w3.org/1999/xlink" x="0px" y="0px"
	 width="758.83px" height="447.685px" viewBox="0 344.315 758.83 447.685" enable-background="new 0 344.315 758.83 447.685"
	 xml:space="preserve">
<g>
	<g>
		<path fill="#060E59" d="M390.143,448.743c-9.935-10.246-20.801-17.387-33.22-22.354v-29.805c0-20.18-14.592-35.082-34.772-35.082
			H150.153c-20.181,0-37.256,14.902-37.256,35.082v27.011c-13.971,4.968-27.01,12.729-39.119,25.148
			c-19.87,20.801-29.184,49.054-27.631,84.136c0.931,27.011,13.661,52.779,35.704,72.96c13.971,12.419,29.184,21.111,46.57,26.079
			v48.433c0,11.798,4.967,21.732,13.661,29.184c5.899,4.968,12.419,8.072,18.628,10.557c6.52,2.483,18.317,7.761,18.938,10.556
			c1.863,6.83,6.52,12.418,13.04,15.834l40.05,21.732l40.05-21.732c6.209-3.416,10.866-9.004,12.729-15.834
			c0.621-2.484,12.419-7.762,18.938-10.556c6.209-2.174,12.108-5.589,17.697-10.557c8.382-7.451,12.418-17.386,12.418-29.184
			v-48.433c17.386-4.657,33.841-13.66,47.812-26.079c22.043-19.87,35.083-45.949,36.014-72.96
			C419.327,497.486,410.013,469.233,390.143,448.743z"/>
		<g>
			<path fill="#FFFFFF" d="M213.177,431.667H201.38v-54.021h24.527v10.246h-12.729v13.039h11.797v9.625h-11.797L213.177,431.667
				L213.177,431.667z"/>
			<path fill="#FFFFFF" d="M254.469,414.592h11.177v6.83c0,7.762-3.726,10.866-10.556,10.866h-10.556
				c-6.52,0-10.556-3.415-10.556-10.866v-33.53c0-7.762,3.726-10.866,10.556-10.866h10.556c6.52,0,10.556,3.415,10.556,10.866v4.968
				h-11.177v-6.521c0-0.931-0.621-1.862-1.552-1.862h-5.278c-0.932,0-1.552,0.621-1.552,1.862v36.325
				c0,0.931,0.621,1.862,1.552,1.862h5.278c0.932,0,1.552-0.621,1.552-1.862V414.592z"/>
			<path fill="#FFFFFF" d="M179.647,476.995h20.491v26.39c0,10.245-4.967,14.592-13.661,14.592h-13.971
				c-8.693,0-13.661-4.346-13.661-14.592v-44.707c0-10.245,4.967-14.592,13.661-14.592h13.971c8.693,0,13.661,4.347,13.661,14.592
				v6.83h-14.592v-8.383c0-1.241-0.931-2.173-2.173-2.173h-6.83c-0.932,0-2.173,0.932-2.173,2.173v48.123
				c0,1.241,0.931,2.173,2.173,2.173h6.83c0.932,0,2.173-0.932,2.173-2.173v-16.766h-5.899V476.995z"/>
			<path fill="#FFFFFF" d="M252.917,503.074c0,10.245-4.967,14.592-13.661,14.592h-14.592c-8.693,0-13.661-4.346-13.661-14.592
				v-44.396c0-10.245,4.967-14.592,13.661-14.592h14.592c8.693,0,13.661,4.347,13.661,14.592V503.074L252.917,503.074z
				 M237.394,456.814c0-1.241-0.932-2.173-2.174-2.173h-6.83c-0.931,0-2.173,0.932-2.173,2.173v48.123
				c0,1.241,0.932,2.173,2.173,2.173h6.83c0.932,0,2.174-0.931,2.174-2.173V456.814z"/>
			<path fill="#FFFFFF" d="M306.317,458.678v58.058h-15.523v-23.906h-11.177v23.906h-15.523v-57.747
				c0-10.245,4.967-14.592,13.66-14.592h14.592C301.35,444.086,306.317,448.743,306.317,458.678z M290.794,480.721v-23.906
				c0-1.241-0.931-2.173-2.173-2.173h-6.83c-0.932,0-2.173,0.932-2.173,2.173v23.906H290.794L290.794,480.721z"/>
		</g>
		<path fill="#FF7300" d="M162.882,626.95c-1.863-0.621-4.967-0.311-7.451-0.311c-2.794,0-6.52-0.311-8.383-0.62v54.021
			c0,22.664,24.837,21.732,39.74,33.53c-0.931-17.696-4.036-62.714-4.036-63.335C163.503,655.824,157.915,642.163,162.882,626.95z"
			/>
		<path fill="#FF7300" d="M200.138,535.053c-22.664,7.141-34.772,8.383-43.465,8.383c-27.321,0-54.952-23.285-54.952-54.953
			c0-50.296,53.71-55.884,53.71-55.884l0,0c-2.173,0-95.313,0.621-91.277,99.349c1.863,47.191,48.743,86,92.519,85.689
			c19.56,0,33.22,12.418,34.772,33.841c1.242,15.834,3.726,56.505,4.657,70.786c0.311,3.415,1.863,6.209,4.967,7.762l27.011,14.902
			V555.543C228.08,541.262,213.798,530.706,200.138,535.053z"/>
		<path fill="#FF7300" d="M310.043,626.33c-2.484,0-5.588-0.311-7.451,0.311c4.967,15.212-0.621,29.184-19.87,22.974
			c0,0.932-3.104,45.949-4.036,63.335c14.902-11.797,39.74-10.866,39.74-33.529v-53.711
			C316.563,626.02,312.527,626.33,310.043,626.33z"/>
		<path fill="#FF7300" d="M310.043,432.909L310.043,432.909c0,0,53.4,5.898,53.4,55.884c0,31.668-27.631,54.952-54.953,54.952
			c-8.383,0-20.801-1.552-43.776-8.382c-13.971-4.347-28.252,6.209-28.252,20.801v189.385l27.321-14.902
			c3.104-1.553,4.967-4.657,4.967-7.762c0.931-14.592,3.415-54.953,4.657-70.786c1.553-21.423,15.213-34.151,34.772-33.841
			c43.776,0.311,90.656-38.498,92.519-85.689C405.046,433.53,312.216,432.909,310.043,432.909z"/>
	</g>
	<g>
		<path fill="#FFFFFF" d="M451.616,561.132v18.317h-10.245v-46.881h21.111v8.693h-10.866v11.177h10.245v8.383h-10.245V561.132z"/>
		<path fill="#FFFFFF" d="M496.012,541.572v29.184c0,6.209-3.104,9.625-9.003,9.625h-9.625c-5.898,0-9.003-3.105-9.003-9.625
			v-29.184c0-6.209,3.105-9.625,9.003-9.625h9.625C493.218,531.947,496.012,535.053,496.012,541.572z M486.078,571.688V540.33
			c0-0.311,0-0.621-0.311-0.931c-0.311-0.311-0.621-0.311-0.932-0.311h-4.657c-0.311,0-0.621,0-0.931,0.311
			c-0.311,0.31-0.311,0.62-0.311,0.931v31.357c0,0.311,0,0.621,0.311,0.932c0.31,0.311,0.621,0.311,0.931,0.311h4.657
			c0.311,0,0.621,0,0.932-0.311C485.767,572.619,486.078,572.309,486.078,571.688z"/>
		<path fill="#FFFFFF" d="M513.709,560.2v19.249h-10.246v-46.881h18.007c5.899,0,9.003,3.105,9.003,9.625v5.277
			c0,3.727-1.242,6.21-4.036,7.451c2.484,0.932,3.726,2.795,3.726,5.899v18.628h-10.245v-17.696c0-0.932-0.311-1.553-1.242-1.553
			H513.709z M513.709,539.709v13.661h5.278c0.311,0,0.621,0,0.932-0.311s0.311-0.621,0.311-0.932v-10.866
			c0-0.311,0-0.621-0.311-0.932s-0.621-0.311-0.932-0.311h-5.278V539.709z"/>
		<path fill="#FFFFFF" d="M540.72,587.211l6.52-6.83h-1.552c-5.899,0-9.003-3.105-9.003-9.625v-29.184
			c0-6.209,3.104-9.625,9.003-9.625h9.003c5.899,0,9.003,3.105,9.003,9.625v4.347h-9.624v-5.589c0-0.311,0-0.621-0.311-0.931
			c-0.311-0.311-0.621-0.311-0.932-0.311h-4.657c-0.311,0-0.621,0-0.932,0.311c-0.31,0.31-0.31,0.62-0.31,0.931v31.357
			c0,0.311,0,0.621,0.31,0.932c0.311,0.311,0.621,0.311,0.932,0.311h4.657c0.311,0,0.621,0,0.932-0.311s0.311-0.621,0.311-0.932
			v-7.141h9.624v6.209c0,6.21-3.104,9.625-9.003,9.625h-0.31l-3.416,6.83H540.72L540.72,587.211z"/>
		<path fill="#FFFFFF" d="M588.531,531.947c5.899,0,9.003,3.105,9.003,9.625v37.877H587.29v-15.523h-7.451v15.523h-10.245v-37.877
			c0-6.209,3.104-9.625,9.003-9.625H588.531z M580.149,555.854h7.451V540.33c0-0.311,0-0.621-0.311-0.931
			c-0.311-0.311-0.621-0.311-0.931-0.311h-4.657c-0.311,0-0.621,0-0.931,0.311c-0.311,0.31-0.311,0.62-0.311,0.931v15.523H580.149z"
			/>
		<path fill="#FFFFFF" d="M633.239,560.821v-7.451h13.35v17.075c0,6.21-3.104,9.625-9.003,9.625h-9.003
			c-5.899,0-9.003-3.104-9.003-9.625v-29.184c0-6.209,3.104-9.624,9.003-9.624h9.003c5.899,0,9.003,3.104,9.003,9.624v4.347h-9.624
			v-5.589c0-0.311,0-0.62-0.311-0.931s-0.621-0.311-0.932-0.311h-4.657c-0.311,0-0.621,0-0.932,0.311
			c-0.31,0.311-0.31,0.621-0.31,0.931v31.357c0,0.311,0,0.621,0.31,0.932c0.311,0.311,0.621,0.311,0.932,0.311h4.657
			c0.311,0,0.621,0,0.932-0.311s0.311-0.621,0.311-0.932v-10.866h-3.726V560.821z"/>
		<path fill="#FFFFFF" d="M679.809,541.572v29.184c0,6.209-3.105,9.625-9.004,9.625h-9.624c-5.899,0-9.003-3.105-9.003-9.625
			v-29.184c0-6.209,3.104-9.625,9.003-9.625h9.624C676.703,531.947,679.809,535.053,679.809,541.572z M669.563,571.688V540.33
			c0-0.311,0-0.621-0.311-0.931c-0.31-0.311-0.62-0.311-0.931-0.311h-4.657c-0.311,0-0.621,0-0.932,0.311
			c-0.311,0.31-0.311,0.62-0.311,0.931v31.357c0,0.311,0,0.621,0.311,0.932s0.621,0.311,0.932,0.311h4.657
			c0.311,0,0.621,0,0.931-0.311C669.563,572.619,669.563,572.309,669.563,571.688z"/>
		<path fill="#FFFFFF" d="M705.888,531.947c5.899,0,9.003,3.105,9.003,9.625v37.877h-10.244v-15.523h-7.451v15.523h-10.246v-37.877
			c0-6.209,3.105-9.625,9.004-9.625H705.888z M697.195,555.854h7.451V540.33c0-0.311,0-0.621-0.311-0.931
			c-0.311-0.311-0.621-0.311-0.932-0.311h-4.657c-0.311,0-0.621,0-0.931,0.311c-0.311,0.31-0.311,0.62-0.311,0.931v15.523H697.195z"
			/>
	</g>
</g>
</svg>
